<svg xmlns="http://www.w3.org/2000/svg" xmlns:xlink="http://www.w3.org/1999/xlink" viewBox="0 0 738 348" width="738" height="348"><path d="M 185.000,75.398 C 185.500,79.898 185.168,79.964 186.000,84.398" stroke-width="5.496" stroke="black" fill="none" stroke-linecap="round"></path><path d="M 186.000,84.398 C 186.668,87.964 186.684,88.015 188.000,91.398" stroke-width="4.304" stroke="black" fill="none" stroke-linecap="round"></path><path d="M 188.000,91.398 C 190.184,97.015 190.302,97.002 193.000,102.398" stroke-width="4.195" stroke="black" fill="none" stroke-linecap="round"></path><path d="M 193.000,102.398 C 194.302,105.002 193.798,105.930 196.000,107.398" stroke-width="4.588" stroke="black" fill="none" stroke-linecap="round"></path><path d="M 196.000,107.398 C 198.298,108.930 198.974,108.209 202.000,108.398" stroke-width="4.700" stroke="black" fill="none" stroke-linecap="round"></path><path d="M 202.000,108.398 C 206.974,108.709 207.099,109.011 212.000,108.398" stroke-width="4.425" stroke="black" fill="none" stroke-linecap="round"></path><path d="M 212.000,108.398 C 215.099,108.011 215.143,107.717 218.000,106.398" stroke-width="4.192" stroke="black" fill="none" stroke-linecap="round"></path><path d="M 218.000,106.398 C 221.643,104.717 221.518,104.429 225.000,102.398" stroke-width="3.972" stroke="black" fill="none" stroke-linecap="round"></path><path d="M 225.000,102.398 C 227.518,100.929 227.500,100.898 230.000,99.398" stroke-width="4.076" stroke="black" fill="none" stroke-linecap="round"></path><path d="M 230.000,99.398 C 232.500,97.898 232.649,98.108 235.000,96.398" stroke-width="4.109" stroke="black" fill="none" stroke-linecap="round"></path><path d="M 235.000,96.398 C 238.149,94.108 238.424,94.261 241.000,91.398" stroke-width="4.407" stroke="black" fill="none" stroke-linecap="round"></path><path d="M 241.000,91.398 C 242.924,89.261 243.261,89.109 244.000,86.398" stroke-width="4.676" stroke="black" fill="none" stroke-linecap="round"></path><path d="M 244.000,86.398 C 244.761,83.609 244.581,83.304 244.000,80.398" stroke-width="4.749" stroke="black" fill="none" stroke-linecap="round"></path><path d="M 244.000,80.398 C 243.081,75.804 242.802,75.774 241.000,71.398" stroke-width="4.477" stroke="black" fill="none" stroke-linecap="round"></path><path d="M 241.000,71.398 C 239.302,67.274 239.331,67.187 237.000,63.398" stroke-width="4.441" stroke="black" fill="none" stroke-linecap="round"></path><path d="M 237.000,63.398 C 235.331,60.687 235.250,60.648 233.000,58.398" stroke-width="4.642" stroke="black" fill="none" stroke-linecap="round"></path><path d="M 233.000,58.398 C 230.750,56.148 230.617,56.230 228.000,54.398" stroke-width="4.971" stroke="black" fill="none" stroke-linecap="round"></path><path d="M 228.000,54.398 C 225.617,52.730 225.692,52.377 223.000,51.398" stroke-width="5.038" stroke="black" fill="none" stroke-linecap="round"></path><path d="M 223.000,51.398 C 220.192,50.377 218.698,48.913 217.000,50.398" stroke-width="5.050" stroke="black" fill="none" stroke-linecap="round"></path><path d="M 217.000,50.398 C 214.698,52.413 215.541,54.342 215.000,58.398" stroke-width="5.100" stroke="black" fill="none" stroke-linecap="round"></path><path d="M 215.000,58.398 C 214.541,61.842 215.000,61.898 215.000,65.398" stroke-width="4.317" stroke="black" fill="none" stroke-linecap="round"></path><path d="M 215.000,65.398 C 215.000,68.898 215.000,68.898 215.000,72.398" stroke-width="4.079" stroke="black" fill="none" stroke-linecap="round"></path><path d="M 215.000,72.398 C 215.000,75.398 215.000,75.398 215.000,78.398" stroke-width="4.176" stroke="black" fill="none" stroke-linecap="round"></path><path d="M 215.000,78.398 C 215.000,81.398 215.000,81.398 215.000,84.398" stroke-width="4.116" stroke="black" fill="none" stroke-linecap="round"></path><path d="M 215.000,84.398 C 215.000,86.898 214.134,87.147 215.000,89.398" stroke-width="4.275" stroke="black" fill="none" stroke-linecap="round"></path><path d="M 215.000,89.398 C 216.634,93.647 217.059,93.804 220.000,97.398" stroke-width="4.344" stroke="black" fill="none" stroke-linecap="round"></path><path d="M 220.000,97.398 C 221.559,99.304 222.000,98.898 224.000,100.398" stroke-width="4.303" stroke="black" fill="none" stroke-linecap="round"></path><path d="M 224.000,100.398 C 226.000,101.898 225.833,102.195 228.000,103.398" stroke-width="4.372" stroke="black" fill="none" stroke-linecap="round"></path><path d="M 228.000,103.398 C 230.333,104.695 230.432,104.628 233.000,105.398" stroke-width="4.256" stroke="black" fill="none" stroke-linecap="round"></path><path d="M 233.000,105.398 C 235.432,106.128 235.500,105.898 238.000,106.398" stroke-width="4.263" stroke="black" fill="none" stroke-linecap="round"></path><path d="M 238.000,106.398 C 240.500,106.898 240.500,106.898 243.000,107.398" stroke-width="4.265" stroke="black" fill="none" stroke-linecap="round"></path><path d="M 243.000,107.398 C 245.500,107.898 245.468,108.218 248.000,108.398" stroke-width="4.308" stroke="black" fill="none" stroke-linecap="round"></path><path d="M 248.000,108.398 C 252.468,108.718 252.737,109.402 257.000,108.398" stroke-width="4.386" stroke="black" fill="none" stroke-linecap="round"></path><path d="M 257.000,108.398 C 261.237,107.402 261.553,107.107 265.000,104.398" stroke-width="4.413" stroke="black" fill="none" stroke-linecap="round"></path><path d="M 265.000,104.398 C 268.553,101.607 268.243,101.074 271.000,97.398" stroke-width="4.422" stroke="black" fill="none" stroke-linecap="round"></path><path d="M 271.000,97.398 C 272.743,95.074 272.700,94.998 274.000,92.398" stroke-width="4.208" stroke="black" fill="none" stroke-linecap="round"></path><path d="M 274.000,92.398 C 275.200,89.998 275.000,89.898 276.000,87.398" stroke-width="4.292" stroke="black" fill="none" stroke-linecap="round"></path><path d="M 276.000,87.398 C 277.000,84.898 277.230,84.967 278.000,82.398" stroke-width="4.318" stroke="black" fill="none" stroke-linecap="round"></path><path d="M 278.000,82.398 C 278.730,79.967 278.581,79.912 279.000,77.398" stroke-width="4.399" stroke="black" fill="none" stroke-linecap="round"></path><path d="M 279.000,77.398 C 279.581,73.912 280.586,73.620 280.000,70.398" stroke-width="4.607" stroke="black" fill="none" stroke-linecap="round"></path><path d="M 280.000,70.398 C 279.586,68.120 278.281,65.971 277.000,66.398" stroke-width="5.143" stroke="black" fill="none" stroke-linecap="round"></path><path d="M 277.000,66.398 C 275.281,66.971 274.641,69.196 274.000,72.398" stroke-width="5.232" stroke="black" fill="none" stroke-linecap="round"></path><path d="M 274.000,72.398 C 273.141,76.696 274.000,76.898 274.000,81.398" stroke-width="4.767" stroke="black" fill="none" stroke-linecap="round"></path><path d="M 274.000,81.398 C 274.000,84.898 273.711,84.927 274.000,88.398" stroke-width="4.678" stroke="black" fill="none" stroke-linecap="round"></path><path d="M 274.000,88.398 C 274.211,90.927 273.600,91.532 275.000,93.398" stroke-width="4.812" stroke="black" fill="none" stroke-linecap="round"></path><path d="M 275.000,93.398 C 276.600,95.532 277.332,95.287 280.000,96.398" stroke-width="4.790" stroke="black" fill="none" stroke-linecap="round"></path><path d="M 280.000,96.398 C 283.332,97.787 283.471,97.516 287.000,98.398" stroke-width="4.679" stroke="black" fill="none" stroke-linecap="round"></path><path d="M 287.000,98.398 C 289.471,99.016 289.473,99.169 292.000,99.398" stroke-width="4.813" stroke="black" fill="none" stroke-linecap="round"></path><path d="M 292.000,99.398 C 294.973,99.669 295.393,100.485 298.000,99.398" stroke-width="4.791" stroke="black" fill="none" stroke-linecap="round"></path><path d="M 298.000,99.398 C 301.393,97.985 301.669,97.428 304.000,94.398" stroke-width="4.619" stroke="black" fill="none" stroke-linecap="round"></path><path d="M 304.000,94.398 C 306.669,90.928 306.408,90.538 308.000,86.398" stroke-width="4.482" stroke="black" fill="none" stroke-linecap="round"></path><path d="M 308.000,86.398 C 308.908,84.038 309.505,83.670 309.000,81.398" stroke-width="4.372" stroke="black" fill="none" stroke-linecap="round"></path><path d="M 309.000,81.398 C 308.505,79.170 307.980,78.636 306.000,77.398" stroke-width="5.137" stroke="black" fill="none" stroke-linecap="round"></path><path d="M 306.000,77.398 C 303.980,76.136 302.054,75.134 301.000,76.398" stroke-width="5.270" stroke="black" fill="none" stroke-linecap="round"></path><path d="M 301.000,76.398 C 299.554,78.134 299.894,80.357 301.000,83.398" stroke-width="5.352" stroke="black" fill="none" stroke-linecap="round"></path><path d="M 301.000,83.398 C 301.894,85.857 303.000,85.398 305.000,87.398" stroke-width="4.506" stroke="black" fill="none" stroke-linecap="round"></path><path d="M 305.000,87.398 C 307.000,89.398 306.900,89.508 309.000,91.398" stroke-width="4.421" stroke="black" fill="none" stroke-linecap="round"></path><path d="M 309.000,91.398 C 311.900,94.008 311.851,94.108 315.000,96.398" stroke-width="4.107" stroke="black" fill="none" stroke-linecap="round"></path><path d="M 315.000,96.398 C 317.351,98.108 317.362,98.199 320.000,99.398" stroke-width="4.556" stroke="black" fill="none" stroke-linecap="round"></path><path d="M 320.000,99.398 C 322.862,100.699 322.955,101.122 326.000,101.398" stroke-width="4.854" stroke="black" fill="none" stroke-linecap="round"></path><path d="M 326.000,101.398 C 328.455,101.622 328.667,101.331 331.000,100.398" stroke-width="4.867" stroke="black" fill="none" stroke-linecap="round"></path><path d="M 331.000,100.398 C 333.667,99.331 333.649,99.108 336.000,97.398" stroke-width="4.371" stroke="black" fill="none" stroke-linecap="round"></path><path d="M 336.000,97.398 C 339.149,95.108 339.124,95.035 342.000,92.398" stroke-width="3.940" stroke="black" fill="none" stroke-linecap="round"></path><path d="M 342.000,92.398 C 345.124,89.535 345.000,89.398 348.000,86.398" stroke-width="3.807" stroke="black" fill="none" stroke-linecap="round"></path><path d="M 348.000,86.398 C 350.500,83.898 350.657,84.034 353.000,81.398" stroke-width="3.921" stroke="black" fill="none" stroke-linecap="round"></path><path d="M 353.000,81.398 C 354.657,79.534 354.615,79.476 356.000,77.398" stroke-width="4.210" stroke="black" fill="none" stroke-linecap="round"></path><path d="M 356.000,77.398 C 357.615,74.976 357.700,74.998 359.000,72.398" stroke-width="4.148" stroke="black" fill="none" stroke-linecap="round"></path><path d="M 359.000,72.398 C 360.200,69.998 361.488,69.593 361.000,67.398" stroke-width="4.620" stroke="black" fill="none" stroke-linecap="round"></path><path d="M 361.000,67.398 C 360.488,65.093 358.601,62.941 357.000,63.398" stroke-width="4.999" stroke="black" fill="none" stroke-linecap="round"></path><path d="M 357.000,63.398 C 355.101,63.941 354.734,66.218 354.000,69.398" stroke-width="5.187" stroke="black" fill="none" stroke-linecap="round"></path><path d="M 354.000,69.398 C 353.234,72.718 353.806,72.907 354.000,76.398" stroke-width="4.224" stroke="black" fill="none" stroke-linecap="round"></path><path d="M 354.000,76.398 C 354.306,81.907 354.063,81.966 355.000,87.398" stroke-width="3.619" stroke="black" fill="none" stroke-linecap="round"></path><path d="M 355.000,87.398 C 356.563,96.466 357.000,96.398 359.000,105.398" stroke-width="3.639" stroke="black" fill="none" stroke-linecap="round"></path><path d="M 359.000,105.398 C 360.000,109.898 359.944,109.912 361.000,114.398" stroke-width="3.645" stroke="black" fill="none" stroke-linecap="round"></path><path d="M 361.000,114.398 C 361.944,118.412 362.285,118.347 363.000,122.398" stroke-width="3.744" stroke="black" fill="none" stroke-linecap="round"></path><path d="M 363.000,122.398 C 363.785,126.847 363.471,126.902 364.000,131.398" stroke-width="3.743" stroke="black" fill="none" stroke-linecap="round"></path><path d="M 364.000,131.398 C 364.471,135.402 364.764,135.382 365.000,139.398" stroke-width="3.841" stroke="black" fill="none" stroke-linecap="round"></path><path d="M 365.000,139.398 C 365.264,143.882 365.406,143.930 365.000,148.398" stroke-width="3.777" stroke="black" fill="none" stroke-linecap="round"></path><path d="M 365.000,148.398 C 364.406,154.930 364.419,155.013 363.000,161.398" stroke-width="3.594" stroke="black" fill="none" stroke-linecap="round"></path><path d="M 363.000,161.398 C 362.419,164.013 362.513,164.237 361.000,166.398" stroke-width="4.003" stroke="black" fill="none" stroke-linecap="round"></path><path d="M 361.000,166.398 C 359.013,169.237 358.957,169.786 356.000,171.398" stroke-width="3.982" stroke="black" fill="none" stroke-linecap="round"></path><path d="M 356.000,171.398 C 353.457,172.786 352.744,173.182 350.000,172.398" stroke-width="4.093" stroke="black" fill="none" stroke-linecap="round"></path><path d="M 350.000,172.398 C 345.744,171.182 344.935,170.823 342.000,167.398" stroke-width="4.266" stroke="black" fill="none" stroke-linecap="round"></path><path d="M 342.000,167.398 C 338.935,163.823 339.725,162.998 338.000,158.398" stroke-width="3.747" stroke="black" fill="none" stroke-linecap="round"></path><path d="M 338.000,158.398 C 336.725,154.998 336.447,154.976 336.000,151.398" stroke-width="3.879" stroke="black" fill="none" stroke-linecap="round"></path><path d="M 336.000,151.398 C 335.447,146.976 336.000,146.898 336.000,142.398" stroke-width="3.679" stroke="black" fill="none" stroke-linecap="round"></path><path d="M 336.000,142.398 C 336.000,137.398 335.549,137.361 336.000,132.398" stroke-width="3.524" stroke="black" fill="none" stroke-linecap="round"></path><path d="M 336.000,132.398 C 336.549,126.361 335.958,126.015 338.000,120.398" stroke-width="3.349" stroke="black" fill="none" stroke-linecap="round"></path><path d="M 338.000,120.398 C 339.958,115.015 340.824,115.284 344.000,110.398" stroke-width="3.340" stroke="black" fill="none" stroke-linecap="round"></path><path d="M 344.000,110.398 C 347.324,105.284 347.012,104.956 351.000,100.398" stroke-width="3.294" stroke="black" fill="none" stroke-linecap="round"></path><path d="M 351.000,100.398 C 354.012,96.956 354.434,97.316 358.000,94.398" stroke-width="3.481" stroke="black" fill="none" stroke-linecap="round"></path><path d="M 358.000,94.398 C 359.934,92.816 359.761,92.416 362.000,91.398" stroke-width="4.008" stroke="black" fill="none" stroke-linecap="round"></path><path d="M 362.000,91.398 C 365.261,89.916 365.427,89.875 369.000,89.398" stroke-width="3.959" stroke="black" fill="none" stroke-linecap="round"></path><path d="M 369.000,89.398 C 372.927,88.875 373.000,89.398 377.000,89.398" stroke-width="3.864" stroke="black" fill="none" stroke-linecap="round"></path><path d="M 377.000,89.398 C 381.000,89.398 381.030,89.093 385.000,89.398" stroke-width="3.837" stroke="black" fill="none" stroke-linecap="round"></path><path d="M 385.000,89.398 C 387.530,89.593 387.545,89.729 390.000,90.398" stroke-width="4.167" stroke="black" fill="none" stroke-linecap="round"></path><path d="M 390.000,90.398 C 393.045,91.229 393.088,92.641 396.000,92.398" stroke-width="4.524" stroke="black" fill="none" stroke-linecap="round"></path><path d="M 396.000,92.398 C 399.088,92.141 400.011,91.671 402.000,89.398" stroke-width="5.023" stroke="black" fill="none" stroke-linecap="round"></path><path d="M 402.000,89.398 C 403.511,87.671 403.581,86.723 403.000,84.398" stroke-width="4.930" stroke="black" fill="none" stroke-linecap="round"></path><path d="M 403.000,84.398 C 402.081,80.723 401.913,79.826 399.000,77.398" stroke-width="4.636" stroke="black" fill="none" stroke-linecap="round"></path><path d="M 399.000,77.398 C 395.913,74.826 395.100,75.345 391.000,74.398" stroke-width="4.517" stroke="black" fill="none" stroke-linecap="round"></path><path d="M 391.000,74.398 C 388.600,73.845 388.485,74.191 386.000,74.398" stroke-width="4.396" stroke="black" fill="none" stroke-linecap="round"></path><path d="M 386.000,74.398 C 382.485,74.691 382.218,74.161 379.000,75.398" stroke-width="4.559" stroke="black" fill="none" stroke-linecap="round"></path><path d="M 379.000,75.398 C 375.718,76.661 374.756,76.546 373.000,79.398" stroke-width="4.616" stroke="black" fill="none" stroke-linecap="round"></path><path d="M 373.000,79.398 C 370.756,83.046 371.535,83.847 371.000,88.398" stroke-width="4.460" stroke="black" fill="none" stroke-linecap="round"></path><path d="M 371.000,88.398 C 370.535,92.347 370.232,92.556 371.000,96.398" stroke-width="4.507" stroke="black" fill="none" stroke-linecap="round"></path><path d="M 371.000,96.398 C 371.732,100.056 371.827,100.411 374.000,103.398" stroke-width="4.569" stroke="black" fill="none" stroke-linecap="round"></path><path d="M 374.000,103.398 C 375.827,105.911 376.233,105.889 379.000,107.398" stroke-width="4.667" stroke="black" fill="none" stroke-linecap="round"></path><path d="M 379.000,107.398 C 381.733,108.889 382.029,108.318 385.000,109.398" stroke-width="4.720" stroke="black" fill="none" stroke-linecap="round"></path><path d="M 385.000,109.398 C 387.529,110.318 387.432,110.628 390.000,111.398" stroke-width="4.800" stroke="black" fill="none" stroke-linecap="round"></path><path d="M 390.000,111.398 C 392.432,112.128 392.473,112.169 395.000,112.398" stroke-width="4.850" stroke="black" fill="none" stroke-linecap="round"></path><path d="M 395.000,112.398 C 397.973,112.669 398.000,112.398 401.000,112.398" stroke-width="4.802" stroke="black" fill="none" stroke-linecap="round"></path></svg>